<svg width="527" height="527" viewBox="0 0 527 527" fill="none" xmlns="http://www.w3.org/2000/svg">
<path opacity="0.9" d="M496.016 178.114L178.15 495.916C168.487 505.577 157.015 513.241 144.389 518.47C131.763 523.699 118.231 526.39 104.565 526.39C90.8991 526.39 77.3669 523.699 64.7411 518.47C52.1154 513.241 40.6433 505.577 30.98 495.916C21.3166 486.255 13.6513 474.785 8.42156 462.162C3.19178 449.539 0.5 436.009 0.5 422.346C0.5 408.683 3.19178 395.153 8.42156 382.53C13.6513 369.907 21.3166 358.437 30.98 348.776L348.847 30.9743C358.51 21.3128 369.982 13.6488 382.608 8.42C395.233 3.19122 408.766 0.5 422.432 0.5C436.098 0.5 449.63 3.19122 462.255 8.42C474.881 13.6488 486.353 21.3128 496.016 30.9743C505.679 40.6356 513.345 52.1053 518.575 64.7284C523.804 77.3516 526.496 90.881 526.496 104.544C526.496 118.207 523.804 131.737 518.575 144.36C513.345 156.983 505.679 168.453 496.016 178.114Z" stroke="url(#paint0_linear_3222_30836)"/>
<defs>
<linearGradient id="paint0_linear_3222_30836" x1="0" y1="263.445" x2="526.996" y2="263.445" gradientUnits="userSpaceOnUse">
<stop stop-color="#F99649"/>
<stop offset="1" stop-color="#F9B737"/>
</linearGradient>
</defs>
</svg>
